<svg width="448" height="104" viewBox="0 0 448 104" fill="none" xmlns="http://www.w3.org/2000/svg">
<g id="BNB-33">
<path id="Subtract" fill-rule="evenodd" clip-rule="evenodd" d="M224 72C243.882 72 260 55.8823 260 36C260 28.0897 266.099 18.9936 273.974 19.7406L437.133 35.2189C443.294 35.8033 448 40.9769 448 47.1652V85.9997C448 93.7317 441.732 99.9998 434 99.9998H14C6.26801 99.9998 0 93.7317 0 85.9998V47.1652C0 40.9768 4.70596 35.8033 10.8667 35.2189L174.026 19.7406C181.901 18.9936 188 28.0897 188 36C188 55.8823 204.118 72 224 72Z" fill="white"/>
<g id="Frame 1991">
<g id="navigation/menu - left">
<g id="navigation/menu - home">
<g id="home 1">
<path id="Vector" d="M51 57L60 50L69 57V68C69 68.5304 68.7893 69.0391 68.4142 69.4142C68.0391 69.7893 67.5304 70 67 70H53C52.4696 70 51.9609 69.7893 51.5858 69.4142C51.2107 69.0391 51 68.5304 51 68V57Z" stroke="black" stroke-width="2" stroke-linecap="round" stroke-linejoin="round"/>
<path id="Vector_2" d="M57 70V60H63V70" stroke="black" stroke-width="2" stroke-linecap="round" stroke-linejoin="round"/>
</g>
<path id="Home" d="M44.0605 88H45.373V84.2559H49.7148V88H51.0215V79.5449H49.7148V83.1191H45.373V79.5449H44.0605V88ZM55.6914 88.123C57.5547 88.123 58.6973 86.875 58.6973 84.8242V84.8125C58.6973 82.7617 57.5488 81.5137 55.6914 81.5137C53.8281 81.5137 52.6797 82.7676 52.6797 84.8125V84.8242C52.6797 86.875 53.8223 88.123 55.6914 88.123ZM55.6914 87.0625C54.5957 87.0625 53.9805 86.2363 53.9805 84.8242V84.8125C53.9805 83.4004 54.5957 82.5742 55.6914 82.5742C56.7812 82.5742 57.4023 83.4004 57.4023 84.8125V84.8242C57.4023 86.2305 56.7812 87.0625 55.6914 87.0625ZM60.2148 88H61.4863V84.0918C61.4863 83.2598 62.0547 82.6035 62.8223 82.6035C63.5723 82.6035 64.0469 83.0605 64.0469 83.7871V88H65.3125V83.9746C65.3125 83.207 65.8457 82.6035 66.6543 82.6035C67.4863 82.6035 67.8848 83.0371 67.8848 83.916V88H69.1504V83.6113C69.1504 82.2871 68.4004 81.5137 67.1172 81.5137C66.2324 81.5137 65.5 81.9648 65.1777 82.6504H65.0781C64.7969 81.9648 64.1816 81.5137 63.3145 81.5137C62.4824 81.5137 61.8613 81.918 61.5801 82.6152H61.4863V81.6367H60.2148V88ZM73.5977 88.123C75.2266 88.123 76.1055 87.1855 76.3164 86.3477L76.3281 86.2949L75.1035 86.3008L75.0801 86.3477C74.9277 86.6758 74.4414 87.0801 73.627 87.0801C72.5781 87.0801 71.9102 86.3711 71.8867 85.1523H76.3984V84.707C76.3984 82.7969 75.3086 81.5137 73.5332 81.5137C71.7578 81.5137 70.6094 82.8438 70.6094 84.8301V84.8359C70.6094 86.8516 71.7344 88.123 73.5977 88.123ZM73.5391 82.5566C74.4004 82.5566 75.0391 83.1074 75.1387 84.2441H71.9043C72.0156 83.1484 72.6719 82.5566 73.5391 82.5566Z" fill="#386BF6"/>
</g>
<g id="navigation/menu - home_2">
<path id="Search" d="M121.42 88.2051C123.389 88.2051 124.648 87.1973 124.648 85.5801V85.5742C124.648 84.3203 123.922 83.6055 122.146 83.2246L121.227 83.0195C120.131 82.7852 119.686 82.375 119.686 81.748V81.7422C119.686 80.9453 120.418 80.4824 121.408 80.4824C122.434 80.4766 123.096 80.9805 123.207 81.6719L123.219 81.748H124.49L124.484 81.666C124.391 80.3535 123.219 79.3398 121.426 79.3398C119.633 79.3398 118.367 80.3477 118.361 81.8066V81.8125C118.361 83.0605 119.1 83.8574 120.816 84.2207L121.742 84.4199C122.861 84.6602 123.318 85.082 123.318 85.7324V85.7383C123.318 86.5234 122.551 87.0625 121.473 87.0625C120.342 87.0625 119.527 86.5703 119.457 85.8027L119.451 85.7383H118.162L118.168 85.8145C118.285 87.2383 119.51 88.2051 121.42 88.2051ZM128.902 88.123C130.531 88.123 131.41 87.1855 131.621 86.3477L131.633 86.2949L130.408 86.3008L130.385 86.3477C130.232 86.6758 129.746 87.0801 128.932 87.0801C127.883 87.0801 127.215 86.3711 127.191 85.1523H131.703V84.707C131.703 82.7969 130.613 81.5137 128.838 81.5137C127.062 81.5137 125.914 82.8438 125.914 84.8301V84.8359C125.914 86.8516 127.039 88.123 128.902 88.123ZM128.844 82.5566C129.705 82.5566 130.344 83.1074 130.443 84.2441H127.209C127.32 83.1484 127.977 82.5566 128.844 82.5566ZM134.961 88.1055C135.805 88.1055 136.473 87.7422 136.848 87.0977H136.947V88H138.207V83.6465C138.207 82.3105 137.305 81.5137 135.705 81.5137C134.258 81.5137 133.256 82.2109 133.104 83.2539L133.098 83.2949H134.322L134.328 83.2715C134.48 82.8203 134.943 82.5625 135.646 82.5625C136.508 82.5625 136.947 82.9492 136.947 83.6465V84.209L135.225 84.3086C133.707 84.4023 132.852 85.0645 132.852 86.2012V86.2129C132.852 87.3672 133.748 88.1055 134.961 88.1055ZM134.117 86.1602V86.1484C134.117 85.5742 134.516 85.2578 135.395 85.2051L136.947 85.1055V85.6504C136.947 86.4707 136.25 87.0918 135.301 87.0918C134.615 87.0918 134.117 86.7461 134.117 86.1602ZM140 88H141.271V84.1973C141.271 83.2773 141.934 82.6797 142.906 82.6797C143.146 82.6797 143.363 82.709 143.592 82.7559V81.584C143.463 81.5547 143.24 81.5254 143.035 81.5254C142.186 81.5254 141.594 81.9238 141.365 82.5977H141.271V81.6367H140V88ZM147.318 88.123C148.895 88.123 149.803 87.2734 150.031 86.0371L150.043 85.9844H148.824L148.812 86.0137C148.607 86.6992 148.115 87.0625 147.318 87.0625C146.27 87.0625 145.619 86.207 145.619 84.8008V84.7891C145.619 83.418 146.258 82.5742 147.318 82.5742C148.162 82.5742 148.678 83.043 148.818 83.6699L148.824 83.6875L150.043 83.6816V83.6523C149.867 82.416 148.912 81.5137 147.312 81.5137C145.455 81.5137 144.324 82.7734 144.324 84.7891V84.8008C144.324 86.8574 145.461 88.123 147.318 88.123ZM151.543 88H152.814V84.2676C152.814 83.2422 153.395 82.6035 154.326 82.6035C155.258 82.6035 155.697 83.125 155.697 84.1797V88H156.963V83.8809C156.963 82.3633 156.178 81.5137 154.754 81.5137C153.828 81.5137 153.219 81.9238 152.908 82.6035H152.814V79.1406H151.543V88Z" fill="#9DB2CE"/>
</g>
</g>
<g id="navigation/menu - right">
<g id="navigation/menu - home_3">
<path id="Cart" d="M302.029 88.2051C303.916 88.2051 305.293 87.127 305.539 85.5039V85.4688H304.238L304.227 85.4922C303.986 86.4473 303.148 87.0449 302.029 87.0449C300.506 87.0449 299.557 85.7852 299.557 83.7812V83.7695C299.557 81.7598 300.506 80.5 302.023 80.5C303.137 80.5 303.986 81.1738 304.232 82.2109V82.2285H305.533L305.539 82.1992C305.316 80.5176 303.887 79.3398 302.023 79.3398C299.674 79.3398 298.215 81.0391 298.215 83.7695V83.7812C298.215 86.5059 299.68 88.2051 302.029 88.2051ZM308.867 88.1055C309.711 88.1055 310.379 87.7422 310.754 87.0977H310.854V88H312.113V83.6465C312.113 82.3105 311.211 81.5137 309.611 81.5137C308.164 81.5137 307.162 82.2109 307.01 83.2539L307.004 83.2949H308.229L308.234 83.2715C308.387 82.8203 308.85 82.5625 309.553 82.5625C310.414 82.5625 310.854 82.9492 310.854 83.6465V84.209L309.131 84.3086C307.613 84.4023 306.758 85.0645 306.758 86.2012V86.2129C306.758 87.3672 307.654 88.1055 308.867 88.1055ZM308.023 86.1602V86.1484C308.023 85.5742 308.422 85.2578 309.301 85.2051L310.854 85.1055V85.6504C310.854 86.4707 310.156 87.0918 309.207 87.0918C308.521 87.0918 308.023 86.7461 308.023 86.1602ZM313.906 88H315.178V84.1973C315.178 83.2773 315.84 82.6797 316.812 82.6797C317.053 82.6797 317.27 82.709 317.498 82.7559V81.584C317.369 81.5547 317.146 81.5254 316.941 81.5254C316.092 81.5254 315.5 81.9238 315.271 82.5977H315.178V81.6367H313.906V88ZM321.242 88.041C321.488 88.041 321.723 88.0117 321.928 87.9766V86.9629C321.752 86.9805 321.641 86.9863 321.447 86.9863C320.82 86.9863 320.562 86.7051 320.562 86.0195V82.6387H321.928V81.6367H320.562V80.0312H319.268V81.6367H318.271V82.6387H319.268V86.3242C319.268 87.5488 319.842 88.041 321.242 88.041Z" fill="#9DB2CE"/>
</g>
<g id="navigation/menu - home_4">
<g id="user">
<g id="vuesax/linear/user">
<g id="user_2">
<path id="Vector_3" d="M388 60C390.761 60 393 57.7614 393 55C393 52.2386 390.761 50 388 50C385.239 50 383 52.2386 383 55C383 57.7614 385.239 60 388 60Z" stroke="#9DB2CE" stroke-width="1.5" stroke-linecap="round" stroke-linejoin="round"/>
<path id="Vector_4" d="M396.59 70C396.59 66.13 392.74 63 388 63C383.26 63 379.41 66.13 379.41 70" stroke="#9DB2CE" stroke-width="1.5" stroke-linecap="round" stroke-linejoin="round"/>
</g>
</g>
</g>
<path id="Profile" d="M370.061 88H371.373V85.1113H373.354C375.012 85.1113 376.16 83.9805 376.16 82.3281V82.3164C376.16 80.6582 375.012 79.5449 373.354 79.5449H370.061V88ZM373.025 80.6523C374.162 80.6523 374.824 81.2676 374.824 82.3223V82.334C374.824 83.3945 374.162 84.0098 373.025 84.0098H371.373V80.6523H373.025ZM377.707 88H378.979V84.1973C378.979 83.2773 379.641 82.6797 380.613 82.6797C380.854 82.6797 381.07 82.709 381.299 82.7559V81.584C381.17 81.5547 380.947 81.5254 380.742 81.5254C379.893 81.5254 379.301 81.9238 379.072 82.5977H378.979V81.6367H377.707V88ZM385.043 88.123C386.906 88.123 388.049 86.875 388.049 84.8242V84.8125C388.049 82.7617 386.9 81.5137 385.043 81.5137C383.18 81.5137 382.031 82.7676 382.031 84.8125V84.8242C382.031 86.875 383.174 88.123 385.043 88.123ZM385.043 87.0625C383.947 87.0625 383.332 86.2363 383.332 84.8242V84.8125C383.332 83.4004 383.947 82.5742 385.043 82.5742C386.133 82.5742 386.754 83.4004 386.754 84.8125V84.8242C386.754 86.2305 386.133 87.0625 385.043 87.0625ZM390.018 88H391.283V82.6387H392.684V81.6367H391.271V81.0273C391.271 80.3828 391.547 80.043 392.25 80.043C392.449 80.043 392.619 80.0547 392.736 80.0723V79.1406C392.52 79.1055 392.273 79.082 391.986 79.082C390.662 79.082 390.018 79.7031 390.018 80.9688V81.6367H388.969V82.6387H390.018V88ZM394.775 80.5C395.209 80.5 395.572 80.1426 395.572 79.709C395.572 79.2695 395.209 78.9121 394.775 78.9121C394.336 78.9121 393.979 79.2695 393.979 79.709C393.979 80.1426 394.336 80.5 394.775 80.5ZM394.137 88H395.402V81.6367H394.137V88ZM397.312 88H398.584V79.1406H397.312V88ZM403.148 88.123C404.777 88.123 405.656 87.1855 405.867 86.3477L405.879 86.2949L404.654 86.3008L404.631 86.3477C404.479 86.6758 403.992 87.0801 403.178 87.0801C402.129 87.0801 401.461 86.3711 401.438 85.1523H405.949V84.707C405.949 82.7969 404.859 81.5137 403.084 81.5137C401.309 81.5137 400.16 82.8438 400.16 84.8301V84.8359C400.16 86.8516 401.285 88.123 403.148 88.123ZM403.09 82.5566C403.951 82.5566 404.59 83.1074 404.689 84.2441H401.455C401.566 83.1484 402.223 82.5566 403.09 82.5566Z" fill="#9DB2CE"/>
</g>
</g>
<g id="Frame 46" filter="url(#filter0_d_3_712)">
<rect x="197" y="10" width="55" height="55" rx="27.5" fill="#613EEA"/>
</g>
</g>
</g>
<defs>
<filter id="filter0_d_3_712" x="185" y="2" width="79" height="79" filterUnits="userSpaceOnUse" color-interpolation-filters="sRGB">
<feFlood flood-opacity="0" result="BackgroundImageFix"/>
<feColorMatrix in="SourceAlpha" type="matrix" values="0 0 0 0 0 0 0 0 0 0 0 0 0 0 0 0 0 0 127 0" result="hardAlpha"/>
<feOffset dy="4"/>
<feGaussianBlur stdDeviation="6"/>
<feColorMatrix type="matrix" values="0 0 0 0 0.380392 0 0 0 0 0.243137 0 0 0 0 0.917647 0 0 0 0.5 0"/>
<feBlend mode="normal" in2="BackgroundImageFix" result="effect1_dropShadow_3_712"/>
<feBlend mode="normal" in="SourceGraphic" in2="effect1_dropShadow_3_712" result="shape"/>
</filter>
</defs>
</svg>
