<svg width="448" height="104" viewBox="0 0 448 104" fill="none" xmlns="http://www.w3.org/2000/svg">
<path fill-rule="evenodd" clip-rule="evenodd" d="M224 72C243.882 72 260 55.8822 260 36V36C260 28.0897 266.099 18.9935 273.974 19.7406L437.133 35.2189C443.294 35.8033 448 40.9768 448 47.1652V85.9997C448 93.7317 441.732 99.9998 434 99.9998H14C6.26801 99.9998 0 93.7317 0 85.9998V47.1652C0 40.9768 4.70596 35.8033 10.8667 35.2189L174.026 19.7406C181.901 18.9935 188 28.0897 188 36V36C188 55.8822 204.118 72 224 72Z" fill="white"/>
<g filter="url(#filter0_d_1_286)">
<rect x="197" y="10" width="55" height="55" rx="27.5" fill="#613EEA"/>
</g>
<defs>
<filter id="filter0_d_1_286" x="185" y="2" width="79" height="79" filterUnits="userSpaceOnUse" color-interpolation-filters="sRGB">
<feFlood flood-opacity="0" result="BackgroundImageFix"/>
<feColorMatrix in="SourceAlpha" type="matrix" values="0 0 0 0 0 0 0 0 0 0 0 0 0 0 0 0 0 0 127 0" result="hardAlpha"/>
<feOffset dy="4"/>
<feGaussianBlur stdDeviation="6"/>
<feColorMatrix type="matrix" values="0 0 0 0 0.380392 0 0 0 0 0.243137 0 0 0 0 0.917647 0 0 0 0.5 0"/>
<feBlend mode="normal" in2="BackgroundImageFix" result="effect1_dropShadow_1_286"/>
<feBlend mode="normal" in="SourceGraphic" in2="effect1_dropShadow_1_286" result="shape"/>
</filter>
</defs>
</svg>
